<?xml version="1.0" encoding="utf-8"?>
<!-- Svg Vector Icons : http://www.onlinewebfonts.com/icon -->
<!DOCTYPE svg PUBLIC "-//W3C//DTD SVG 1.1//EN" "http://www.w3.org/Graphics/SVG/1.1/DTD/svg11.dtd">
<svg version="1.1" xmlns="http://www.w3.org/2000/svg" xmlns:xlink="http://www.w3.org/1999/xlink" x="0px" y="0px" viewBox="0 0 1000 1000" enable-background="new 0 0 1000 1000" xml:space="preserve">
<metadata> Svg Vector Icons : http://www.onlinewebfonts.com/icon </metadata>
<g><g transform="translate(0.000000,512.000000) scale(0.100000,-0.100000)"><path d="M2479.4,5016c-1021-159-1679.9-1141.7-1427.1-2124.3c120.7-469.3,473.1-906,888.8-1103.3l114.9-53.6l-229.9-5.8l-227.9-5.7l-5.7-233.7l-5.7-233.7l-134.1,57.5c-126.4,53.6-137.9,55.6-182,26.8l-46-28.7V750.1c0-411.8,5.7-567,23-584.2c36.4-36.4,91.9-26.8,222.2,34.5l118.8,55.5v-802.6v-804.5h1040.1h1042.1l63.2-97.7c34.5-55.6,101.5-126.4,149.4-159c46-32.6,97.7-69,113-80.4c23-15.3-67-243.3-567-1419.4C3023.4-4061.7,2833.8-4531,2833.8-4577c0-47.9,17.2-86.2,55.6-130.3c49.8-55.5,67-63.2,153.2-63.2c78.5,0,105.4,9.6,143.7,47.9c28.7,28.7,212.6,440.6,473.1,1053.5c233.7,553.6,432.9,1013.3,442.5,1024.8c7.7,9.6,15.3-436.7,15.3-990.3v-1007.6l49.8-59.4c82.4-99.6,235.6-97.7,327.6,1.9c32.6,36.4,34.5,105.4,44.1,1057.4l9.6,1017.1l431-1015.2c461.7-1088,488.5-1139.7,611.1-1139.7c124.5,0,231.8,99.6,231.8,214.5c0,24.9-268.2,676.2-597.6,1450.1l-597.6,1406l47.9,30.7c78.5,51.7,226,195.4,268.2,262.4l40.2,65.1h1032.5h1032.4l3.8,513.4l5.7,511.5l287.3,5.7l289.2,3.8l429.1-160.9c237.5-88.1,436.7-172.4,442.5-185.8c7.7-15.3,23-49.8,34.5-80.4c42.1-105.4,214.5-160.9,327.5-103.5c24.9,13.4,67.1,53.7,90,88.1l44.1,67l-3.8,1143.6l-5.7,1145.5l-55.5,57.5c-136,141.7-354.4,97.7-413.8-86.2c-11.5-34.5-36.4-67-53.6-74.7c-17.2-5.7-203-76.6-409.9-157.1l-379.3-143.7V918.7c0-247.1-3.8-277.8-40.2-323.7c-44.1-57.5-137.9-67-201.1-23c-32.6,24.9-38.3,59.4-46,321.8l-9.6,293.1l-166.6,5.7l-168.6,5.7v266.3v268.2h-224.1h-226l84.3,38.3c243.3,111.1,570.8,406.1,716.4,645.5c306.5,503.8,337.1,1122.5,80.4,1643.5c-216.4,442.5-588.1,754.7-1074.6,902.2c-149.4,46-203.1,51.7-448.2,53.6c-227.9,1.9-304.6-5.7-431-40.2c-434.8-118.8-800.7-386.9-1032.5-756.6c-132.2-214.5-197.3-216.4-331.4-7.7c-128.3,197.3-226,310.3-386.9,436.7c-295,235.6-630.2,358.2-1007.6,369.7C2640.3,5021.7,2512,5019.8,2479.4,5016z M3647.9,1062.4c44.1-49.8,44.1-141.7,0-191.5c-32.6-36.4-57.5-38.3-664.7-38.3c-603.4,0-630.2,1.9-666.6,38.3c-21.1,21.1-38.3,63.2-38.3,95.8s17.2,74.7,38.3,95.8c36.4,36.4,63.2,38.3,666.6,38.3C3590.4,1100.7,3615.3,1098.8,3647.9,1062.4z"/></g></g>
</svg>